<mxfile host="65bd71144e">
    <diagram id="p9xffuPN43w7QsLGDwVm" name="Page-1">
        <mxGraphModel dx="1118" dy="766" grid="1" gridSize="10" guides="1" tooltips="1" connect="1" arrows="1" fold="1" page="1" pageScale="1" pageWidth="827" pageHeight="1169" math="0" shadow="0">
            <root>
                <mxCell id="0"/>
                <mxCell id="1" parent="0"/>
                <mxCell id="2" value="" style="rounded=0;whiteSpace=wrap;html=1;" vertex="1" parent="1">
                    <mxGeometry x="130" y="30" width="310" height="690" as="geometry"/>
                </mxCell>
                <mxCell id="4" value="Frechi" style="text;html=1;strokeColor=none;fillColor=none;align=center;verticalAlign=middle;whiteSpace=wrap;rounded=0;" vertex="1" parent="1">
                    <mxGeometry x="255" y="60" width="60" height="30" as="geometry"/>
                </mxCell>
                <mxCell id="5" value="Compte à trouver" style="text;html=1;strokeColor=none;fillColor=none;align=center;verticalAlign=middle;whiteSpace=wrap;rounded=0;" vertex="1" parent="1">
                    <mxGeometry x="222.5" y="100" width="125" height="30" as="geometry"/>
                </mxCell>
                <mxCell id="6" value="" style="rounded=0;whiteSpace=wrap;html=1;" vertex="1" parent="1">
                    <mxGeometry x="150" y="200" width="270" height="240" as="geometry"/>
                </mxCell>
                <mxCell id="8" value="" style="rounded=0;whiteSpace=wrap;html=1;" vertex="1" parent="1">
                    <mxGeometry x="171.25" y="510" width="227.5" height="190" as="geometry"/>
                </mxCell>
                <mxCell id="9" value="" style="rounded=0;whiteSpace=wrap;html=1;" vertex="1" parent="1">
                    <mxGeometry x="183.75" y="525" width="205" height="45" as="geometry"/>
                </mxCell>
                <mxCell id="11" value="" style="rounded=0;whiteSpace=wrap;html=1;" vertex="1" parent="1">
                    <mxGeometry x="183.75" y="585" width="205" height="45" as="geometry"/>
                </mxCell>
                <mxCell id="12" value="" style="rounded=0;whiteSpace=wrap;html=1;" vertex="1" parent="1">
                    <mxGeometry x="183.75" y="640" width="205" height="45" as="geometry"/>
                </mxCell>
                <mxCell id="13" value="&lt;i&gt;&lt;font color=&quot;#7a7a7a&quot;&gt;Zone des équations&lt;/font&gt;&lt;/i&gt;" style="text;html=1;strokeColor=none;fillColor=none;align=center;verticalAlign=middle;whiteSpace=wrap;rounded=0;" vertex="1" parent="1">
                    <mxGeometry x="232.5" y="305" width="125" height="30" as="geometry"/>
                </mxCell>
                <mxCell id="14" value="Chiffres obtenus" style="text;html=1;strokeColor=none;fillColor=none;align=center;verticalAlign=middle;whiteSpace=wrap;rounded=0;fontColor=#7A7A7A;" vertex="1" parent="1">
                    <mxGeometry x="220" y="532.5" width="127.5" height="30" as="geometry"/>
                </mxCell>
                <mxCell id="15" value="Chiffres de départ" style="text;html=1;strokeColor=none;fillColor=none;align=center;verticalAlign=middle;whiteSpace=wrap;rounded=0;fontColor=#7A7A7A;" vertex="1" parent="1">
                    <mxGeometry x="225" y="592.5" width="120" height="30" as="geometry"/>
                </mxCell>
                <mxCell id="16" value="Opérateurs" style="text;html=1;strokeColor=none;fillColor=none;align=center;verticalAlign=middle;whiteSpace=wrap;rounded=0;fontColor=#7A7A7A;" vertex="1" parent="1">
                    <mxGeometry x="250" y="647.5" width="60" height="30" as="geometry"/>
                </mxCell>
                <mxCell id="17" value="" style="rounded=1;whiteSpace=wrap;html=1;fontColor=#7A7A7A;" vertex="1" parent="1">
                    <mxGeometry x="187.5" y="642.5" width="37.5" height="35" as="geometry"/>
                </mxCell>
                <mxCell id="18" value="" style="rounded=1;whiteSpace=wrap;html=1;fontColor=#7A7A7A;" vertex="1" parent="1">
                    <mxGeometry x="187.5" y="590" width="37.5" height="35" as="geometry"/>
                </mxCell>
                <mxCell id="19" value="" style="rounded=1;whiteSpace=wrap;html=1;fontColor=#7A7A7A;" vertex="1" parent="1">
                    <mxGeometry x="187.5" y="530" width="37.5" height="35" as="geometry"/>
                </mxCell>
                <mxCell id="21" value="" style="rounded=0;whiteSpace=wrap;html=1;fontColor=#7A7A7A;" vertex="1" parent="1">
                    <mxGeometry x="160" y="370" width="250" height="60" as="geometry"/>
                </mxCell>
                <mxCell id="22" value="" style="rounded=1;whiteSpace=wrap;html=1;fontColor=#7A7A7A;" vertex="1" parent="1">
                    <mxGeometry x="170" y="375" width="50" height="50" as="geometry"/>
                </mxCell>
                <mxCell id="23" value="" style="rounded=1;whiteSpace=wrap;html=1;fontColor=#7A7A7A;" vertex="1" parent="1">
                    <mxGeometry x="255" y="375" width="50" height="50" as="geometry"/>
                </mxCell>
                <mxCell id="25" value="=7" style="text;html=1;strokeColor=none;fillColor=none;align=center;verticalAlign=middle;whiteSpace=wrap;rounded=0;fontColor=#7A7A7A;" vertex="1" parent="1">
                    <mxGeometry x="287.5" y="385" width="60" height="30" as="geometry"/>
                </mxCell>
                <mxCell id="27" value="4" style="text;html=1;strokeColor=none;fillColor=none;align=center;verticalAlign=middle;whiteSpace=wrap;rounded=0;fontColor=#7A7A7A;" vertex="1" parent="1">
                    <mxGeometry x="170" y="385" width="60" height="30" as="geometry"/>
                </mxCell>
                <mxCell id="28" value="3" style="text;html=1;strokeColor=none;fillColor=none;align=center;verticalAlign=middle;whiteSpace=wrap;rounded=0;fontColor=#7A7A7A;" vertex="1" parent="1">
                    <mxGeometry x="250" y="385" width="60" height="30" as="geometry"/>
                </mxCell>
                <mxCell id="29" value="+" style="text;html=1;strokeColor=none;fillColor=none;align=center;verticalAlign=middle;whiteSpace=wrap;rounded=0;fontColor=#7A7A7A;" vertex="1" parent="1">
                    <mxGeometry x="210" y="385" width="60" height="30" as="geometry"/>
                </mxCell>
                <mxCell id="34" value="" style="rounded=0;whiteSpace=wrap;html=1;fontColor=#ffffff;rotation=45;fillColor=#a20025;strokeColor=none;" vertex="1" parent="1">
                    <mxGeometry x="370" y="395" width="40" height="10" as="geometry"/>
                </mxCell>
                <mxCell id="35" value="" style="rounded=0;whiteSpace=wrap;html=1;fontColor=#ffffff;rotation=-230;fillColor=#a20025;strokeColor=none;" vertex="1" parent="1">
                    <mxGeometry x="370" y="395" width="40" height="10" as="geometry"/>
                </mxCell>
                <mxCell id="38" value="" style="rounded=0;whiteSpace=wrap;html=1;fontColor=#ffffff;rotation=45;fillColor=#60a917;strokeColor=none;" vertex="1" parent="1">
                    <mxGeometry x="329.33000000000004" y="410.58" width="15.67" height="4.42" as="geometry"/>
                </mxCell>
                <mxCell id="41" value="" style="rounded=0;whiteSpace=wrap;html=1;fontColor=#ffffff;rotation=-225;fillColor=#60a917;strokeColor=none;" vertex="1" parent="1">
                    <mxGeometry x="336.04" y="405.28" width="29.03" height="4.42" as="geometry"/>
                </mxCell>
            </root>
        </mxGraphModel>
    </diagram>
</mxfile>